<svg xmlns="http://www.w3.org/2000/svg" id="Capa_1" data-name="Capa 1" viewBox="0 0 100 100"><defs><linearGradient id="Degradado_sin_nombre_6" x1="68.4" x2="92.33" y1="22.23" y2="22.23" data-name="Degradado sin nombre 6" gradientUnits="userSpaceOnUse"><stop offset="0" stop-color="#e14238"/><stop offset="1" stop-color="#f6931f"/></linearGradient><style>.cls-1{fill:#fff;stroke-width:0}</style></defs><path d="M58.56 70.59c.18-.48.49-.53.71-.68 6.43-4.14 10.31-9.93 11.21-17.57 1.5-12.71-7.63-24.44-20.23-26.07-12.76-1.66-24.56 7.09-26.6 19.73-2.05 12.71 6.89 25.06 19.58 27.04 1.36.21 2.73.26 4.1.26h34.32q1.38 0 1.38-1.4c0-.5-.01-1 0-1.5.01-.3-.13-.69.22-.84.29-.12.49.21.69.39 3.03 2.59 6.06 5.19 9.09 7.78.5.43.96.89 1.5 1.27.64.45.59.79.01 1.28-2.83 2.4-5.63 4.82-8.45 7.24-.61.53-1.22 1.07-1.85 1.57-.32.26-.59.85-1.03.62-.41-.21-.16-.8-.18-1.22-.03-.59-.03-1.18 0-1.78.03-.61-.24-.86-.84-.81-.28.02-.56 0-.84 0H47.22C37 85.9 28.28 82.22 21.13 75c-5.89-5.95-9.28-13.19-10.17-21.56-2-19.03 11.09-36.03 29.48-39.41 8.66-1.59 16.85-.14 24.55 4.15.81.45 1.04.92.91 1.84-1.11 7.72 3.68 14.71 11.24 16.46.97.23 1.96.36 2.96.31.6-.03.9.23 1.09.78 1.7 4.92 2.4 9.96 1.95 15.17-.52 5.99-2.45 11.47-5.63 16.56-.57.91-1.2 1.31-2.32 1.29-5.14-.06-10.29-.03-15.43-.03h-1.21Z" class="cls-1"/><path d="M64.57 49.75c0 2.56 0 2.6-2.48 3.15-.92.2-1.55.52-1.69 1.53-.05.33-.18.68-.38.95-.84 1.14-.53 2.11.22 3.2 1.1 1.6 1.03 1.65-.33 3.01-.57.57-1.17 1.12-1.71 1.73-.46.52-.94.6-1.44.15-1.54-1.38-3.06-1.47-4.94-.48-.99.53-1.42 1.06-1.66 2.06-.6 2.56-.04 2.12-2.73 2.17-.59 0-1.19-.06-1.77.02-1.04.14-1.5-.31-1.58-1.3-.14-1.65-.88-2.62-2.57-3.25-1.37-.51-2.28-.49-3.46.29-1.73 1.14-1.25 1.24-2.87-.34-.62-.61-1.22-1.25-1.86-1.84-.4-.38-.55-.77-.15-1.21 1.45-1.61 1.65-3.24.52-5.19-.47-.8-.83-1.28-1.75-1.48-2.44-.53-2.43-.58-2.43-3.09 0-2.72 0-2.75 2.68-3.37.81-.19 1.25-.56 1.44-1.35.12-.51.31-1.04.59-1.47.57-.86.41-1.54-.13-2.36-1.35-2.07-1.31-2.11.43-3.82.64-.63 1.15-1.62 1.99-1.76.85-.13 1.59.73 2.34 1.21.65.42 1.19.5 1.88.09.58-.34 1.24-.59 1.9-.77.66-.18 1.01-.52 1.11-1.19.06-.46.21-.91.32-1.36.4-1.64.19-1.5 1.97-1.51.93 0 1.87.01 2.8 0 .58-.01.99.18 1.03.81.13 2.17 1.24 3.42 3.35 4.02.82.23 1.39.33 2.13-.15 2.17-1.41 2.19-1.38 4.04.46 1.9 1.9 1.92 1.91.5 4.18-.42.67-.59 1.26-.1 1.96.21.3.38.67.44 1.02.25 1.38 1.1 1.92 2.45 2.19 2.15.43 1.9.08 1.92 2.37v.75Zm-11.27-.03c.01-3.59-2.66-6.3-6.23-6.31-3.52-.01-6.34 2.74-6.39 6.22-.05 3.45 2.88 6.41 6.35 6.41 3.49 0 6.26-2.78 6.27-6.32Z" class="cls-1"/><path d="M92.33 22.13c.06 6.6-5.32 12.03-11.96 12.08-6.37.05-11.9-5.36-11.96-11.7-.07-6.71 5.2-12.22 11.72-12.28 6.75-.06 12.14 5.2 12.2 11.9ZM78.3 26.68c.37.01.68-.13.93-.37 2.12-2.11 4.24-4.21 6.34-6.34.57-.57.57-1.26 0-1.84-.56-.58-1.23-.52-1.86-.06-.2.15-.37.33-.55.51l-3.3 3.3c-.46.46-.87 1.12-1.43 1.3-.7.23-.96-.72-1.49-1.06-.48-.31-.94-.47-1.48-.17-.48.27-.74.68-.74 1.21 0 .86 2.73 3.53 3.58 3.52Z" style="fill:url(#Degradado_sin_nombre_6);stroke-width:0"/><path d="M32.17 85.73c-.4.27-.72.19-1.02.19H6.28c-1.24 0-1.26-.02-1.26-1.25 0-3.4.02-6.79-.02-10.19-.01-.89.27-1.21 1.17-1.2 2.99.04 5.98.02 8.97.01.59 0 1.06.13 1.46.64 3.98 5.04 8.93 8.82 14.8 11.42.22.1.44.22.76.37Z" class="cls-1"/></svg>