<svg data-name="Capa 1" xmlns="http://www.w3.org/2000/svg" xmlns:xlink="http://www.w3.org/1999/xlink" viewBox="0 0 100 100"><defs><linearGradient id="a" data-name="Degradado sin nombre 6" x1="8.69" y1="78.63" x2="41.42" y2="78.63" gradientUnits="userSpaceOnUse"><stop offset="0" stop-color="#e14238"/><stop offset="1" stop-color="#f6931f"/></linearGradient><linearGradient id="b" data-name="Degradado sin nombre 6" x1="28.58" y1="84.94" x2="32.04" y2="84.94" xlink:href="#a"/><linearGradient id="c" data-name="Degradado sin nombre 6" x1="18.08" y1="72.29" x2="21.53" y2="72.29" xlink:href="#a"/></defs><path d="M91.31 46.01v30.6c0 1.12-.02 2.25-.27 3.35-.91 4.09-4.43 6.95-8.62 6.96-12.98.01-25.95 0-38.93 0-1.08 0-1.11-.03-.7-1.04 1.41-3.47 1.74-7.06 1.1-10.73-.12-.69-.06-1.02.75-1.09 1.02-.08 1.64-.84 1.68-1.91.03-.75.02-1.5 0-2.25-.02-1.44-.72-2.18-2.18-2.25-.84-.04-1.69-.04-2.53 0-.59.03-.98-.2-1.34-.66-3.17-4.07-7.3-6.55-12.4-7.33-1.29-.2-2.6-.38-3.91-.2-.58.08-.82-.14-.81-.7V14.21c0-4.59 2.9-8.19 7.25-9.08.54-.11 1.11-.13 1.67-.13 16.75 0 33.5-.01 50.26 0 4.82 0 8.5 3.51 8.87 8.35.08 1.06.09 2.12.09 3.18v29.48ZM57.16 29.53h21.9c1.58 0 2.29-.71 2.29-2.29.01-2.4.01-4.8 0-7.2 0-1.52-.7-2.21-2.25-2.21H35.31c-1.54 0-2.16.62-2.17 2.16-.01 2.34 0 4.68 0 7.02 0 1.92.61 2.53 2.5 2.53h21.52Zm-16.44 9.84c-1.21 0-2.43-.02-3.64 0-1.37.02-2.04.71-2.07 2.09-.02.81-.02 1.62 0 2.43.05 1.15.75 1.89 1.87 1.91 2.49.03 4.98.03 7.47 0 1.15-.01 1.92-.8 1.97-1.95.04-.81.03-1.62 0-2.43-.04-1.26-.8-2.02-2.07-2.04-1.18-.03-2.37 0-3.55 0Zm16.45 6.44c1.25 0 2.49.02 3.74 0 1.21-.03 1.9-.72 1.95-1.92.03-.84.03-1.68 0-2.52-.04-1.27-.72-1.97-1.98-1.99-2.43-.03-4.86-.02-7.29 0-1.22.01-1.99.75-2.06 1.96-.05.84-.05 1.68 0 2.52.08 1.21.85 1.92 2.08 1.94 1.18.02 2.37 0 3.55 0Zm16.65 0c1.25 0 2.49.03 3.74 0 1.18-.04 1.89-.79 1.93-1.97.02-.84.03-1.68 0-2.52-.04-1.12-.75-1.9-1.87-1.92-2.52-.04-5.04-.04-7.57 0-1.13.02-1.84.79-1.88 1.91-.03.81-.02 1.62 0 2.43.03 1.34.75 2.05 2.11 2.08 1.18.02 2.37 0 3.55 0ZM57.19 74.1c1.28 0 2.55.02 3.83 0 1.14-.03 1.78-.67 1.84-1.81.04-.84.03-1.68.01-2.52-.03-1.27-.67-2.04-1.92-2.08-2.46-.07-4.92-.07-7.38 0-1.34.04-2 .83-2.04 2.19-.02.75-.03 1.5 0 2.24.06 1.23.79 1.96 2.02 1.98 1.21.02 2.43 0 3.64 0Zm16.6 0h3.55c1.45-.03 2.12-.69 2.15-2.11.01-.72.01-1.43 0-2.15-.03-1.36-.67-2.13-2.04-2.17-2.43-.07-4.86-.06-7.29 0-1.29.03-1.98.83-2 2.1-.02.78-.02 1.56 0 2.34.04 1.27.71 1.95 1.98 1.98 1.21.03 2.43 0 3.64 0ZM40.65 53.57H37.1c-1.43.04-2.06.64-2.09 2.04-.02.75-.02 1.49 0 2.24.03 1.31.58 2.06 1.87 2.1 2.52.09 5.04.09 7.56 0 1.26-.04 1.87-.84 1.9-2.11.02-.75.02-1.5 0-2.24-.04-1.29-.76-2.01-2.05-2.04-1.21-.03-2.43 0-3.64 0Zm33.15 0c-1.28 0-2.55-.03-3.83 0-1.05.03-1.74.71-1.8 1.77-.04.78-.03 1.56-.02 2.33.02 1.57.69 2.27 2.27 2.32 1.34.04 2.68.02 4.02.01 1.06 0 2.12.04 3.17-.05 1.23-.11 1.83-.83 1.87-2.04.02-.78.02-1.56 0-2.33-.03-1.31-.71-1.99-2.04-2.02-1.21-.03-2.43 0-3.64 0Zm-16.51 0c-1.24 0-2.49-.02-3.73 0-1.23.03-1.96.75-2.02 1.98-.03.65-.01 1.31 0 1.96.01 1.74.75 2.49 2.51 2.5 1.65.02 3.3.01 4.95 0 .78 0 1.56.08 2.32-.1 1.01-.24 1.5-.79 1.55-1.82.04-.87.04-1.74 0-2.61-.05-1.25-.68-1.88-1.93-1.9-1.21-.03-2.43 0-3.64 0Z" style="fill:#fff;stroke-width:0"/><path d="M25.13 62.26C15.98 62.23 8.7 69.47 8.68 78.6c-.01 9 7.23 16.25 16.15 16.39 9.05.14 16.56-7.28 16.59-16.13.02-9.27-7.12-16.57-16.28-16.59Zm-9.91 10.01a4.535 4.535 0 0 1 4.57-4.47c2.56 0 4.49 1.93 4.49 4.49 0 2.51-2 4.56-4.47 4.57-2.46.01-4.65-2.17-4.6-4.59Zm5.4 14.88c-.6.84-1.43 1.01-2.09.52-.66-.5-.75-1.31-.14-2.16 3.7-5.17 7.42-10.32 11.12-15.48.43-.59.98-.89 1.69-.67.59.18.89.65.92 1.27.03.4-.16.73-.38 1.03-3.7 5.16-7.4 10.33-11.12 15.49Zm9.73 2.28c-2.59.01-4.53-1.93-4.52-4.54 0-2.5 2.02-4.53 4.49-4.52 2.48 0 4.47 2.03 4.48 4.53 0 2.57-1.91 4.51-4.45 4.53Z" style="fill:url(#a);stroke-width:0"/><path d="M30.32 83.21c-.97 0-1.73.73-1.74 1.68-.01.97.83 1.8 1.77 1.77.93-.03 1.69-.82 1.69-1.76 0-.96-.75-1.69-1.72-1.69Z" style="fill:url(#b);stroke-width:0"/><path d="M21.53 72.31c0-.91-.81-1.73-1.74-1.74-.91-.01-1.71.8-1.71 1.74 0 1 .71 1.71 1.71 1.71.96 0 1.74-.75 1.74-1.7Z" style="stroke-width:0;fill:url(#c)"/></svg>