<svg xmlns="http://www.w3.org/2000/svg" xmlns:xlink="http://www.w3.org/1999/xlink" id="Capa_1" data-name="Capa 1" viewBox="0 0 100 100"><defs><linearGradient id="Degradado_sin_nombre_6" x1="5" x2="23.74" y1="25.19" y2="25.19" data-name="Degradado sin nombre 6" gradientUnits="userSpaceOnUse"><stop offset="0" stop-color="#e14238"/><stop offset="1" stop-color="#f6931f"/></linearGradient><linearGradient xlink:href="#Degradado_sin_nombre_6" id="Degradado_sin_nombre_6-2" x1="5" x2="23.74" y1="74.81" y2="74.81" data-name="Degradado sin nombre 6"/><linearGradient xlink:href="#Degradado_sin_nombre_6" id="Degradado_sin_nombre_6-3" x1="5" x2="23.74" y1="50" y2="50" data-name="Degradado sin nombre 6"/><style>.cls-3{stroke-width:0;fill:#fff}</style></defs><path d="M95 51.41c-.62 1.8-1.6 3.3-3.37 4.19-1.08.54-2.23.73-3.4.73-16.16.01-32.32.02-48.48 0-3.46 0-5.86-1.79-6.68-4.85-.94-3.53 1.67-7.31 5.28-7.69.88-.09 1.75-.12 2.63-.12h46.98c2.34 0 4.38.65 5.87 2.59.55.71.8 1.56 1.16 2.35v2.81ZM95 26.46c-.7 2.42-2.15 4.11-4.64 4.82-.6.17-1.22.17-1.83.17-16.36 0-32.72-.05-49.08.04-4.07.02-7.72-3.79-6.18-8.41.84-2.51 3.27-4.17 6.19-4.2 3.1-.03 6.2 0 9.31 0 12.88 0 25.76.04 38.63-.03 3.74-.02 6.42 1.27 7.61 4.98v2.63ZM95 76.17c-.34.77-.58 1.59-1.09 2.29-1.4 1.91-3.34 2.67-5.64 2.67H57.98c-6.12 0-12.23.01-18.35 0-2.7 0-4.8-1.09-6.09-3.55-2.02-3.85.86-8.87 5.21-8.99 2.52-.07 5.03-.03 7.55-.03 14.02 0 28.04.02 42.06-.01 2.76 0 4.79 1.1 6.08 3.53.24.46.38.98.57 1.47v2.63Z" class="cls-3"/><path d="M5 25.15c0-5.17 4.28-9.43 9.4-9.37a9.41 9.41 0 0 1 9.34 9.44c0 5.17-4.23 9.37-9.41 9.36C9.16 34.57 5 30.35 5 25.15Z" style="fill:url(#Degradado_sin_nombre_6);stroke-width:0"/><path d="M5 74.75c.01-5.18 4.22-9.36 9.42-9.34 5.15.02 9.33 4.26 9.32 9.45-.01 5.13-4.18 9.3-9.34 9.35-5.16.05-9.4-4.23-9.39-9.46Z" style="fill:url(#Degradado_sin_nombre_6-2);stroke-width:0"/><path d="M14.37 40.63A9.32 9.32 0 0 1 23.74 50c0 5.21-4.16 9.37-9.38 9.37C9.14 59.37 5 55.22 5 50c0-5.22 4.15-9.37 9.37-9.37Z" style="stroke-width:0;fill:url(#Degradado_sin_nombre_6-3)"/></svg>