<svg xmlns="http://www.w3.org/2000/svg" data-name="Capa 1" viewBox="0 0 100 100"><defs><linearGradient id="a" x1="9.93" x2="81.86" y1="49.63" y2="49.63" data-name="Degradado sin nombre 6" gradientUnits="userSpaceOnUse"><stop offset="0" stop-color="#e14238"/><stop offset="1" stop-color="#f6931f"/></linearGradient></defs><path d="M81.86 80.7c-17.92.29-54.02.57-71.93.86V20.85c6.59-2.91 17.46-4.32 23.47-1.89 4.52 1.83 4.6 4.14 9.69 6.17 7.17 2.85 11.96.62 19.38.88 5.36.19 10.03-1.99 18.94 4.35 0 14.6.45 35.21.45 50.34Z" style="fill:url(#a);stroke-width:0"/><path d="M47.07 87.17c-9.76 0-19.52-.11-29.28.04-6.63.1-12.82-5.26-12.79-12.79.05-16.3.01-32.6.02-48.9 0-6.47 4.3-11.54 10.68-12.62.57-.1 1.16-.09 1.73-.09 5.38 0 10.76.01 16.14-.02 1.18 0 2.2.32 3.16.97 3.29 2.21 6.61 4.38 9.89 6.59.64.43 1.29.64 2.07.63 7.38-.02 14.75-.04 22.13 0 4.37.03 7.92 1.8 10.49 5.37 1.31 1.82 1.97 3.89 2.24 6.1.1.81-.15 1.18-1.04 1.16-2.13-.04-4.25-.03-6.38 0-.64 0-.98-.18-1.14-.86-.52-2.2-1.87-3.24-4.16-3.24-7.8 0-15.59-.02-23.39 0-1.54 0-2.89-.38-4.17-1.25-3.22-2.2-6.49-4.32-9.72-6.5-.56-.38-1.12-.56-1.79-.56-4.64.02-9.28 0-13.92.01-2.73 0-4.41 1.65-4.41 4.4-.01 16.24-.01 32.47 0 48.71 0 2.43 1.52 4.18 3.65 4.38.73.07 1.1-.13 1.26-.92 1.97-9.97 3.99-19.94 5.97-29.91 1.24-6.22 6.17-10.33 12.51-10.34H86.4c5.71 0 9.49 4.53 8.4 10.17-1.91 9.82-3.86 19.64-5.88 29.44-1.24 6.04-6.22 10-12.38 10-9.83.01-19.65 0-29.48 0Z" style="stroke-width:0;fill:#fff"/></svg>